HIERARCHY
ROOT root
{
	OFFSET 0.000000 0.000000 0.000000
	CHANNELS 6 Xposition Yposition Zposition Zrotation Yrotation Xrotation
	JOINT lhip
	{
		OFFSET 0.058581 -0.082280 -0.017664
		CHANNELS 3 Zrotation Yrotation Xrotation
		JOINT lknee
		{
			OFFSET 0.043451 -0.386469 0.008037
			CHANNELS 3 Zrotation Yrotation Xrotation
			JOINT lankle
			{
				OFFSET -0.014790 -0.426874 -0.037428
				CHANNELS 3 Zrotation Yrotation Xrotation
				JOINT ltoe
				{
					OFFSET 0.041054 -0.060286 0.122042
					CHANNELS 3 Zrotation Yrotation Xrotation
					End Site
					{
						OFFSET 0.000000 0.000000 0.000000
					}
				}
			}
		}
	}
	JOINT rhip
	{
		OFFSET -0.060310 -0.090513 -0.013543
		CHANNELS 3 Zrotation Yrotation Xrotation
		JOINT rknee
		{
			OFFSET -0.043257 -0.383688 -0.004843
			CHANNELS 3 Zrotation Yrotation Xrotation
			JOINT rankle
			{
				OFFSET 0.019056 -0.420046 -0.034562
				CHANNELS 3 Zrotation Yrotation Xrotation
				JOINT rtoe
				{
					OFFSET -0.034840 -0.062106 0.130323
					CHANNELS 3 Zrotation Yrotation Xrotation
					End Site
					{
						OFFSET 0.000000 0.000000 0.000000
					}
				}
			}
		}
	}
	JOINT lowerback
	{
		OFFSET 0.004439 0.124404 -0.038385
		CHANNELS 3 Zrotation Yrotation Xrotation
		JOINT upperback
		{
			OFFSET 0.004488 0.137956 0.026820
			CHANNELS 3 Zrotation Yrotation Xrotation
			JOINT chest
			{
				OFFSET -0.002265 0.056032 0.002855
				CHANNELS 3 Zrotation Yrotation Xrotation
				JOINT lowerneck
				{
					OFFSET -0.013390 0.211636 -0.033468
					CHANNELS 3 Zrotation Yrotation Xrotation
					JOINT upperneck
					{
						OFFSET 0.010113 0.088937 0.050410
						CHANNELS 3 Zrotation Yrotation Xrotation
						End Site
						{
							OFFSET 0.000000 0.000000 0.000000
						}
					}
				}
				JOINT lclavicle
				{
					OFFSET 0.071702 0.114000 -0.018898
					CHANNELS 3 Zrotation Yrotation Xrotation
					JOINT lshoulder
					{
						OFFSET 0.122921 0.045205 -0.019046
						CHANNELS 3 Zrotation Yrotation Xrotation
						JOINT lelbow
						{
							OFFSET 0.255332 -0.015649 -0.022946
							CHANNELS 3 Zrotation Yrotation Xrotation
							JOINT lwrist
							{
								OFFSET 0.265709 0.012698 -0.007375
								CHANNELS 3 Zrotation Yrotation Xrotation
								End Site
								{
									OFFSET 0.000000 0.000000 0.000000
								}
							}
						}
					}
				}
				JOINT rclavicle
				{
					OFFSET -0.082954 0.112472 -0.023707
					CHANNELS 3 Zrotation Yrotation Xrotation
					JOINT rshoulder
					{
						OFFSET -0.113228 0.046853 -0.008472
						CHANNELS 3 Zrotation Yrotation Xrotation
						JOINT relbow
						{
							OFFSET -0.260127 -0.014369 -0.031269
							CHANNELS 3 Zrotation Yrotation Xrotation
							JOINT rwrist
							{
								OFFSET -0.269108 0.006794 -0.006027
								CHANNELS 3 Zrotation Yrotation Xrotation
								End Site
								{
									OFFSET 0.000000 0.000000 0.000000
								}
							}
						}
					}
				}
			}
		}
	}
}
MOTION
Frames: 13
Frame Time: 0.033333
2.320024 0.719639 0.995410 -88.200409 -1.099612 84.910332 -1.187868 1.147235 6.091970 -0.312415 -8.648204 0.102159 3.948737 11.770976 -8.735183 0.000000 -0.000000 0.000000 -0.230898 -3.552797 0.763907 -1.533171 -1.216287 10.788916 1.028329 -10.317855 -13.547056 0.000000 -0.000000 0.000000 -1.555449 0.666375 4.462041 0.853770 -3.162591 1.333131 1.268156 -1.177400 -3.980836 3.669145 21.764290 -6.654383 2.273162 25.563678 6.173190 -28.421753 -3.995178 0.393393 -52.690984 -2.808213 11.942856 1.200979 -22.099859 4.788906 1.035578 -5.453804 -1.729535 24.974187 5.828239 5.178174 54.033502 4.354756 18.282189 -1.797004 23.459622 7.510196 3.208980 4.320215 5.328691 
2.321028 0.718221 0.994769 -88.318618 -0.946269 85.162022 -0.868982 1.087883 5.668802 -0.690507 -8.464562 0.268428 3.261937 11.718566 -8.071770 0.000000 -0.000000 0.000000 -0.017824 -3.293320 0.304126 -1.647101 -1.280177 11.056460 1.279806 -10.723270 -13.540446 0.000000 -0.000000 0.000000 -0.846014 0.402056 4.369833 0.491152 -2.754846 0.432814 0.962981 -0.718526 -3.277071 3.885123 21.698787 -6.643101 2.280877 25.262088 6.227702 -27.833404 -3.911130 -0.075497 -52.925576 -3.455562 12.182992 1.931005 -21.873919 6.571297 -0.666540 -5.455919 -0.196446 23.910641 5.393323 5.086765 54.987247 4.733224 18.193250 -2.024582 23.632638 8.487506 3.904117 4.119823 5.067829 
2.321617 0.717503 0.994933 -88.157471 -0.873115 85.135560 -0.903616 0.943515 5.710757 -0.519982 -8.553701 0.126954 3.426796 11.779736 -7.991236 0.000000 -0.000000 0.000000 0.083548 -3.167606 0.235923 -1.714715 -1.418642 11.188200 1.134734 -10.936132 -13.714258 0.000000 -0.000000 0.000000 -0.604148 0.254360 4.447879 0.417183 -2.719740 0.318515 0.905813 -0.613667 -3.202037 3.783360 21.718797 -6.844734 2.172518 25.282155 6.157450 -27.849245 -3.835536 -0.259905 -52.847738 -3.502429 12.119429 2.679430 -22.357207 6.944762 -1.634009 -5.746278 0.836771 23.572921 5.293280 5.038808 55.161639 4.661592 18.028218 -2.389722 24.286760 8.503984 4.833786 4.317956 4.504211 
2.321859 0.716758 0.995025 -88.077373 -0.939457 85.097193 -0.930503 0.840912 5.755277 -0.714406 -8.625177 0.073475 3.150001 11.689483 -7.822869 0.000000 -0.000000 0.000000 -0.061399 -3.071673 0.191660 -1.665284 -1.480665 11.376423 1.068093 -11.022654 -13.697491 0.000000 -0.000000 0.000000 -0.533461 0.150237 4.501531 0.357138 -2.633083 0.121452 0.936703 -0.558324 -3.093939 3.698988 21.857559 -6.655315 1.915966 25.363383 5.998158 -27.800191 -3.816406 -0.484789 -52.879231 -3.943064 12.117261 3.006561 -22.036968 7.627299 -2.704025 -6.225858 0.845372 23.525920 5.270242 4.964634 55.084079 4.700630 18.062385 -2.373605 24.359263 8.977252 5.412978 4.548915 4.528858 
2.322038 0.716661 0.995124 -87.978612 -0.888915 85.126117 -0.786870 0.917687 5.644701 -0.866698 -8.636553 0.172423 3.022059 11.536442 -7.843499 0.000000 -0.000000 0.000000 -0.050520 -3.173363 0.158276 -1.627481 -1.539949 11.380871 1.085785 -10.978230 -13.678694 0.000000 -0.000000 0.000000 -0.421831 0.167381 4.507987 0.359950 -2.614126 -0.023541 0.927865 -0.617801 -3.046550 3.728759 21.928772 -6.634774 1.860570 25.487201 6.060009 -27.854891 -3.899585 -0.372838 -52.913948 -3.897570 12.259106 3.036153 -22.077528 7.774731 -2.178588 -6.089608 0.746120 23.460426 5.200579 4.908448 55.213514 4.845843 18.042384 -2.278347 24.343718 8.871676 5.235975 4.303657 4.089277 
2.322061 0.716209 0.995124 -87.744227 -0.819059 85.104352 -0.725803 0.914897 5.671932 -0.847071 -8.809891 0.091947 2.810607 11.383184 -7.735051 0.000000 -0.000000 0.000000 0.027412 -3.262567 0.248656 -1.650767 -1.577883 11.285781 1.064949 -10.970249 -13.567427 0.000000 -0.000000 0.000000 -0.363835 0.142886 4.416560 0.445986 -2.704128 0.147985 0.974963 -0.666438 -3.073720 3.712047 22.090756 -6.768624 1.797377 25.693990 6.175364 -28.019309 -3.934464 -0.252007 -52.845948 -3.769923 12.455945 2.809296 -22.426809 8.370537 -1.490785 -6.108562 0.891974 23.612187 5.267266 4.971191 54.988662 4.949713 18.063435 -2.259362 24.593255 8.755049 4.453119 4.431156 4.072514 
2.322042 0.715613 0.994826 -87.555394 -0.904261 85.079632 -0.901309 0.826523 5.694781 -0.778554 -8.866506 0.045733 2.826891 11.374125 -7.730516 0.000000 -0.000000 0.000000 -0.104910 -3.223130 0.264374 -1.658073 -1.685394 11.330154 1.081104 -11.046248 -13.680737 0.000000 -0.000000 0.000000 -0.409378 0.166559 4.425079 0.456834 -2.650388 0.069430 1.009162 -0.754894 -2.958384 3.701434 22.221191 -6.773099 1.859438 25.775761 6.304387 -27.912129 -3.892430 -0.199575 -53.096048 -3.870311 12.430234 2.759229 -22.211519 8.774897 -1.839899 -6.367977 0.874474 23.555376 5.169820 4.932986 55.123143 5.047490 18.038124 -2.350831 24.526151 8.844058 4.595431 4.606940 4.084195 
2.322397 0.715336 0.994779 -87.336315 -0.850243 85.081289 -0.811404 0.783755 5.577495 -0.891819 -8.983444 0.190157 2.791376 11.273579 -7.714630 0.000000 -0.000000 0.000000 -0.046121 -3.239511 0.254051 -1.689052 -1.737994 11.342992 1.059448 -11.158435 -13.741880 0.000000 -0.000000 0.000000 -0.409001 0.152750 4.518070 0.515464 -2.595212 -0.094111 1.101931 -0.819530 -2.867707 3.757625 22.248880 -6.781209 1.823832 25.837933 6.377463 -27.943438 -3.782590 -0.229974 -53.327449 -3.985667 12.393576 2.787944 -22.019268 8.811970 -1.825008 -6.250414 0.634597 23.405901 5.058500 4.864376 55.271139 5.139678 18.097143 -2.271932 24.467054 8.914939 4.692339 4.425665 3.789363 
2.322811 0.714823 0.994918 -87.162503 -0.907669 85.022548 -0.883531 0.825593 5.697246 -0.881518 -9.166918 -0.034429 2.739553 11.212512 -7.598144 0.000000 -0.000000 0.000000 -0.135032 -3.345029 0.261750 -1.719492 -1.812730 11.428216 1.074025 -11.146162 -13.760181 0.000000 -0.000000 0.000000 -0.412955 0.132095 4.564619 0.470378 -2.621276 -0.007484 1.121688 -0.812116 -2.867351 3.725307 22.396827 -6.670578 1.804354 25.943837 6.079842 -28.006194 -3.687885 -0.050430 -53.222849 -3.609670 12.278450 2.702521 -22.932989 8.832077 -1.919341 -5.764410 0.463393 23.433501 5.104767 4.844184 55.277614 5.148395 18.059502 -2.268771 24.795808 8.940704 4.900805 4.202876 3.564401 
2.322174 0.714301 0.994656 -87.248476 -0.832724 84.882743 -0.805092 1.062143 6.189842 -0.784900 -9.237005 -0.604776 2.545873 11.075528 -7.432801 0.000000 -0.000000 0.000000 -0.122065 -3.455677 0.470454 -1.718221 -1.778217 11.386056 1.177874 -10.983851 -13.845561 0.000000 -0.000000 0.000000 -0.153511 0.282525 4.483936 0.380740 -2.435111 0.094749 1.058921 -0.854455 -2.616434 3.735141 22.601227 -6.754934 1.653290 25.839485 5.993740 -27.970521 -3.658981 -0.154817 -53.439631 -3.733319 12.155613 2.651826 -22.177831 9.171080 -1.973821 -6.297413 0.576352 23.382099 5.039328 4.866176 55.426115 5.426876 18.021207 -2.284865 24.753189 9.106639 4.597178 4.361854 3.782271 
2.322764 0.714262 0.994618 -87.061069 -0.789081 84.899932 -0.728012 1.032990 6.007083 -0.865095 -9.345433 -0.423672 2.399673 10.960371 -7.391215 0.000000 -0.000000 0.000000 -0.063119 -3.514513 0.420605 -1.766546 -1.871973 11.398473 1.072336 -11.134149 -13.881416 0.000000 -0.000000 0.000000 -0.124308 0.334329 4.617661 0.382771 -2.468344 0.101745 1.051885 -0.813390 -2.671193 3.658121 22.597074 -7.013430 1.704294 25.873254 5.961122 -28.049468 -3.710889 -0.171465 -53.366674 -3.654972 12.192266 2.621408 -21.745863 9.410105 -2.341764 -6.269712 0.887261 23.421421 5.057549 4.683518 55.369278 5.205546 18.039401 -2.266812 24.921949 9.361000 4.993232 4.569790 3.865144 
2.323012 0.714088 0.994669 -86.983529 -0.781185 84.963935 -0.732132 1.005299 5.903614 -0.884553 -9.330076 -0.409311 2.323280 10.921687 -7.350550 0.000000 -0.000000 0.000000 -0.060591 -3.572888 0.328954 -1.780994 -1.920316 11.402682 1.079604 -11.096337 -13.751549 0.000000 -0.000000 0.000000 -0.079639 0.399874 4.572901 0.374041 -2.462994 0.175221 0.997843 -0.721375 -2.652305 3.706302 22.631362 -6.868692 1.563052 25.891007 5.591986 -28.019087 -3.628887 -0.281308 -53.324108 -3.562573 12.250329 2.515427 -21.540693 9.439620 -2.458380 -6.419630 1.045666 23.410606 5.089857 4.720927 55.384414 5.176434 18.026823 -2.288636 25.086730 9.245116 5.010854 4.652783 3.883136 
2.323266 0.713779 0.994749 -86.810595 -0.777821 84.966556 -0.763476 0.953195 5.846136 -0.844352 -9.422693 -0.380664 2.412599 10.910356 -7.325503 0.000000 -0.000000 0.000000 -0.123644 -3.611535 0.342053 -1.726671 -1.971017 11.411132 1.132699 -11.149049 -13.756717 0.000000 -0.000000 0.000000 0.011279 0.424252 4.632066 0.286676 -2.456417 0.122551 0.940597 -0.723014 -2.567045 3.681147 22.658447 -6.989026 1.520778 25.918270 5.537757 -28.072667 -3.640538 -0.275553 -53.209802 -3.502998 12.159361 2.570890 -21.192513 9.540175 -2.822034 -6.360404 1.052594 23.373255 5.115748 4.805229 55.429581 5.224775 17.995984 -2.315208 25.173843 9.280233 5.066227 4.645618 3.809416 
